<mxfile host="app.diagrams.net" modified="2023-08-17T05:12:30.142Z" agent="Mozilla/5.0 (Windows NT 10.0; Win64; x64) AppleWebKit/537.36 (KHTML, like Gecko) Chrome/109.0.0.0 Safari/537.36" etag="_bLFMDr_JS6CzFJqsYn0" version="21.6.8" type="google">
  <diagram name="ページ1" id="nfmKuTGokWzxQb2C2fqj">
    <mxGraphModel grid="1" page="1" gridSize="10" guides="1" tooltips="1" connect="1" arrows="1" fold="1" pageScale="1" pageWidth="1169" pageHeight="827" math="0" shadow="0">
      <root>
        <mxCell id="0" />
        <mxCell id="1" parent="0" />
        <mxCell id="6TJCWMIPRrn_ZnzJz7kv-1" value="Primitive" style="rounded=1;whiteSpace=wrap;html=1;arcSize=7;align=center;fontStyle=1;verticalAlign=top;fontSize=22;fillColor=#dae8fc;strokeWidth=3;strokeColor=none;" vertex="1" parent="1">
          <mxGeometry x="10" y="1" width="470" height="419" as="geometry" />
        </mxCell>
        <mxCell id="6TJCWMIPRrn_ZnzJz7kv-2" value="" style="rounded=1;whiteSpace=wrap;html=1;fontFamily=Helvetica;fontSize=11;fontColor=default;" vertex="1" parent="1">
          <mxGeometry x="173" y="230" width="167" height="180" as="geometry" />
        </mxCell>
        <mxCell id="6TJCWMIPRrn_ZnzJz7kv-3" value="" style="rounded=0;whiteSpace=wrap;html=1;strokeWidth=6;fillColor=none;strokeColor=#CC0000;" vertex="1" parent="1">
          <mxGeometry x="800" y="280" width="140" height="140" as="geometry" />
        </mxCell>
        <mxCell id="6TJCWMIPRrn_ZnzJz7kv-4" style="rounded=0;orthogonalLoop=1;jettySize=auto;html=1;strokeWidth=4;" edge="1" parent="1" source="6TJCWMIPRrn_ZnzJz7kv-2">
          <mxGeometry relative="1" as="geometry">
            <mxPoint x="780" y="340" as="targetPoint" />
            <mxPoint x="460" y="407.71844660194165" as="sourcePoint" />
          </mxGeometry>
        </mxCell>
        <mxCell id="6TJCWMIPRrn_ZnzJz7kv-5" value="&lt;b&gt;&lt;font style=&quot;font-size: 16px;&quot;&gt;頂点で三角形を作り、&lt;br&gt;それを組み合わせて面を作る&lt;br&gt;&lt;br&gt;頂点変換（Vertex Shader）&lt;/font&gt;&lt;/b&gt;" style="edgeLabel;html=1;align=center;verticalAlign=middle;resizable=0;points=[];fontSize=11;fontFamily=Helvetica;fontColor=default;labelBackgroundColor=none;" vertex="1" connectable="0" parent="6TJCWMIPRrn_ZnzJz7kv-4">
          <mxGeometry x="0.0714" y="-1" relative="1" as="geometry">
            <mxPoint x="50" y="-64" as="offset" />
          </mxGeometry>
        </mxCell>
        <mxCell id="6TJCWMIPRrn_ZnzJz7kv-6" value="" style="rounded=0;whiteSpace=wrap;html=1;strokeColor=none;fillColor=none;" vertex="1" parent="1">
          <mxGeometry width="40" height="40" as="geometry" />
        </mxCell>
        <mxCell id="6TJCWMIPRrn_ZnzJz7kv-7" value="" style="rounded=0;whiteSpace=wrap;html=1;strokeColor=none;fillColor=none;" vertex="1" parent="1">
          <mxGeometry x="1600" width="40" height="40" as="geometry" />
        </mxCell>
        <mxCell id="6TJCWMIPRrn_ZnzJz7kv-8" value="" style="ellipse;whiteSpace=wrap;html=1;aspect=fixed;fillColor=#000000;" vertex="1" parent="1">
          <mxGeometry x="70" y="110" width="10" height="10" as="geometry" />
        </mxCell>
        <mxCell id="6TJCWMIPRrn_ZnzJz7kv-9" value="" style="ellipse;whiteSpace=wrap;html=1;aspect=fixed;fillColor=#000000;" vertex="1" parent="1">
          <mxGeometry x="70" y="150" width="10" height="10" as="geometry" />
        </mxCell>
        <mxCell id="6TJCWMIPRrn_ZnzJz7kv-10" value="0" style="text;html=1;align=center;verticalAlign=middle;resizable=0;points=[];autosize=1;strokeColor=none;fillColor=none;fontStyle=1;fontSize=16;" vertex="1" parent="1">
          <mxGeometry x="40" y="140" width="30" height="30" as="geometry" />
        </mxCell>
        <mxCell id="6TJCWMIPRrn_ZnzJz7kv-11" value="1" style="text;html=1;align=center;verticalAlign=middle;resizable=0;points=[];autosize=1;strokeColor=none;fillColor=none;fontStyle=1;fontSize=16;" vertex="1" parent="1">
          <mxGeometry x="120" y="140" width="30" height="30" as="geometry" />
        </mxCell>
        <mxCell id="6TJCWMIPRrn_ZnzJz7kv-12" value="2" style="text;html=1;align=center;verticalAlign=middle;resizable=0;points=[];autosize=1;strokeColor=none;fillColor=none;fontStyle=1;fontSize=16;" vertex="1" parent="1">
          <mxGeometry x="40" y="100" width="30" height="30" as="geometry" />
        </mxCell>
        <mxCell id="6TJCWMIPRrn_ZnzJz7kv-13" value="Point" style="text;html=1;align=center;verticalAlign=middle;resizable=0;points=[];autosize=1;strokeColor=none;fillColor=none;fontStyle=1;fontSize=20;" vertex="1" parent="1">
          <mxGeometry x="65" y="170" width="70" height="40" as="geometry" />
        </mxCell>
        <mxCell id="6TJCWMIPRrn_ZnzJz7kv-14" value="Line" style="text;html=1;align=center;verticalAlign=middle;resizable=0;points=[];autosize=1;strokeColor=none;fillColor=none;fontStyle=1;fontSize=20;" vertex="1" parent="1">
          <mxGeometry x="228" y="170" width="60" height="40" as="geometry" />
        </mxCell>
        <mxCell id="6TJCWMIPRrn_ZnzJz7kv-15" value="LineStrip" style="text;html=1;align=center;verticalAlign=middle;resizable=0;points=[];autosize=1;strokeColor=none;fillColor=none;fontStyle=1;fontSize=20;" vertex="1" parent="1">
          <mxGeometry x="358" y="170" width="110" height="40" as="geometry" />
        </mxCell>
        <mxCell id="6TJCWMIPRrn_ZnzJz7kv-16" value="Triangle" style="text;html=1;align=center;verticalAlign=middle;resizable=0;points=[];autosize=1;strokeColor=none;fillColor=none;fontStyle=1;fontSize=20;" vertex="1" parent="1">
          <mxGeometry x="50" y="360" width="100" height="40" as="geometry" />
        </mxCell>
        <mxCell id="6TJCWMIPRrn_ZnzJz7kv-17" value="TriangleStrip" style="text;html=1;align=center;verticalAlign=middle;resizable=0;points=[];autosize=1;strokeColor=none;fillColor=none;fontStyle=1;fontSize=20;" vertex="1" parent="1">
          <mxGeometry x="183" y="360" width="150" height="40" as="geometry" />
        </mxCell>
        <mxCell id="6TJCWMIPRrn_ZnzJz7kv-18" style="edgeStyle=orthogonalEdgeStyle;rounded=0;orthogonalLoop=1;jettySize=auto;html=1;entryX=0.5;entryY=0;entryDx=0;entryDy=0;curved=1;strokeWidth=4;" edge="1" parent="1" source="6TJCWMIPRrn_ZnzJz7kv-20" target="6TJCWMIPRrn_ZnzJz7kv-3">
          <mxGeometry relative="1" as="geometry">
            <Array as="points">
              <mxPoint x="1395" y="150" />
              <mxPoint x="870" y="150" />
            </Array>
          </mxGeometry>
        </mxCell>
        <mxCell id="6TJCWMIPRrn_ZnzJz7kv-19" value="画像（テクスチャ）を貼り付ける&lt;br&gt;&lt;br&gt;画像処理（Fragment shader）" style="edgeLabel;html=1;align=center;verticalAlign=middle;resizable=0;points=[];labelBackgroundColor=none;fontStyle=1;fontSize=15;" vertex="1" connectable="0" parent="6TJCWMIPRrn_ZnzJz7kv-18">
          <mxGeometry x="0.0004" y="-2" relative="1" as="geometry">
            <mxPoint x="43" y="-48" as="offset" />
          </mxGeometry>
        </mxCell>
        <mxCell id="6TJCWMIPRrn_ZnzJz7kv-20" value="" style="sketch=0;outlineConnect=0;dashed=0;verticalLabelPosition=bottom;verticalAlign=top;align=center;html=1;fontSize=12;fontStyle=0;aspect=fixed;pointerEvents=1;shape=mxgraph.aws4.container_registry_image;fillColor=#0050ef;strokeColor=#001DBC;gradientDirection=north;fontColor=#ffffff;" vertex="1" parent="1">
          <mxGeometry x="1280" y="230" width="230" height="230" as="geometry" />
        </mxCell>
        <mxCell id="6TJCWMIPRrn_ZnzJz7kv-21" value="3" style="text;html=1;align=center;verticalAlign=middle;resizable=0;points=[];autosize=1;strokeColor=none;fillColor=none;fontStyle=1;fontSize=20;" vertex="1" parent="1">
          <mxGeometry x="950.5" y="240" width="30" height="40" as="geometry" />
        </mxCell>
        <mxCell id="6TJCWMIPRrn_ZnzJz7kv-22" value="TriangleStrip" style="text;html=1;align=center;verticalAlign=middle;resizable=0;points=[];autosize=1;strokeColor=none;fillColor=none;fontStyle=1;fontSize=20;" vertex="1" parent="1">
          <mxGeometry x="795" y="470" width="150" height="40" as="geometry" />
        </mxCell>
        <mxCell id="6TJCWMIPRrn_ZnzJz7kv-23" value="" style="ellipse;whiteSpace=wrap;html=1;aspect=fixed;fillColor=#000000;" vertex="1" parent="1">
          <mxGeometry x="790" y="270" width="20" height="20" as="geometry" />
        </mxCell>
        <mxCell id="6TJCWMIPRrn_ZnzJz7kv-24" value="2" style="text;html=1;align=center;verticalAlign=middle;resizable=0;points=[];autosize=1;strokeColor=none;fillColor=none;fontStyle=1;fontSize=20;" vertex="1" parent="1">
          <mxGeometry x="760" y="240" width="30" height="40" as="geometry" />
        </mxCell>
        <mxCell id="6TJCWMIPRrn_ZnzJz7kv-25" value="" style="ellipse;whiteSpace=wrap;html=1;aspect=fixed;fillColor=#000000;" vertex="1" parent="1">
          <mxGeometry x="790" y="410" width="20" height="20" as="geometry" />
        </mxCell>
        <mxCell id="6TJCWMIPRrn_ZnzJz7kv-26" value="0" style="text;html=1;align=center;verticalAlign=middle;resizable=0;points=[];autosize=1;strokeColor=none;fillColor=none;fontStyle=1;fontSize=20;" vertex="1" parent="1">
          <mxGeometry x="760" y="430" width="30" height="40" as="geometry" />
        </mxCell>
        <mxCell id="6TJCWMIPRrn_ZnzJz7kv-27" style="edgeStyle=orthogonalEdgeStyle;shape=connector;rounded=0;orthogonalLoop=1;jettySize=auto;html=1;labelBackgroundColor=default;strokeColor=default;fontFamily=Helvetica;fontSize=11;fontColor=default;endArrow=none;endFill=0;entryX=0.5;entryY=0.5;entryDx=0;entryDy=0;entryPerimeter=0;strokeWidth=3;" edge="1" parent="1" source="6TJCWMIPRrn_ZnzJz7kv-23" target="6TJCWMIPRrn_ZnzJz7kv-25">
          <mxGeometry relative="1" as="geometry">
            <mxPoint x="829.5" y="560" as="targetPoint" />
          </mxGeometry>
        </mxCell>
        <mxCell id="6TJCWMIPRrn_ZnzJz7kv-28" value="" style="ellipse;whiteSpace=wrap;html=1;aspect=fixed;fillColor=#000000;" vertex="1" parent="1">
          <mxGeometry x="930" y="410" width="20" height="20" as="geometry" />
        </mxCell>
        <mxCell id="6TJCWMIPRrn_ZnzJz7kv-29" value="1" style="text;html=1;align=center;verticalAlign=middle;resizable=0;points=[];autosize=1;strokeColor=none;fillColor=none;fontStyle=1;fontSize=20;" vertex="1" parent="1">
          <mxGeometry x="950" y="430" width="30" height="40" as="geometry" />
        </mxCell>
        <mxCell id="6TJCWMIPRrn_ZnzJz7kv-30" style="shape=connector;rounded=0;orthogonalLoop=1;jettySize=auto;html=1;labelBackgroundColor=default;strokeColor=default;fontFamily=Helvetica;fontSize=11;fontColor=default;endArrow=none;endFill=0;strokeWidth=3;" edge="1" parent="1" source="6TJCWMIPRrn_ZnzJz7kv-28" target="6TJCWMIPRrn_ZnzJz7kv-23">
          <mxGeometry relative="1" as="geometry" />
        </mxCell>
        <mxCell id="6TJCWMIPRrn_ZnzJz7kv-31" style="edgeStyle=orthogonalEdgeStyle;rounded=0;orthogonalLoop=1;jettySize=auto;html=1;entryX=0;entryY=0.5;entryDx=0;entryDy=0;endArrow=none;endFill=0;strokeWidth=3;" edge="1" parent="1" source="6TJCWMIPRrn_ZnzJz7kv-25" target="6TJCWMIPRrn_ZnzJz7kv-28">
          <mxGeometry relative="1" as="geometry" />
        </mxCell>
        <mxCell id="6TJCWMIPRrn_ZnzJz7kv-32" value="" style="ellipse;whiteSpace=wrap;html=1;aspect=fixed;fillColor=#000000;" vertex="1" parent="1">
          <mxGeometry x="930" y="270" width="20" height="20" as="geometry" />
        </mxCell>
        <mxCell id="6TJCWMIPRrn_ZnzJz7kv-33" style="edgeStyle=orthogonalEdgeStyle;shape=connector;rounded=0;orthogonalLoop=1;jettySize=auto;html=1;entryX=0;entryY=0.5;entryDx=0;entryDy=0;labelBackgroundColor=default;strokeColor=default;fontFamily=Helvetica;fontSize=11;fontColor=default;endArrow=none;endFill=0;strokeWidth=3;" edge="1" parent="1" source="6TJCWMIPRrn_ZnzJz7kv-23" target="6TJCWMIPRrn_ZnzJz7kv-32">
          <mxGeometry relative="1" as="geometry" />
        </mxCell>
        <mxCell id="6TJCWMIPRrn_ZnzJz7kv-34" style="edgeStyle=orthogonalEdgeStyle;shape=connector;rounded=0;orthogonalLoop=1;jettySize=auto;html=1;entryX=0.5;entryY=0;entryDx=0;entryDy=0;labelBackgroundColor=default;strokeColor=default;fontFamily=Helvetica;fontSize=11;fontColor=default;endArrow=none;endFill=0;strokeWidth=3;" edge="1" parent="1" source="6TJCWMIPRrn_ZnzJz7kv-32" target="6TJCWMIPRrn_ZnzJz7kv-28">
          <mxGeometry relative="1" as="geometry" />
        </mxCell>
        <mxCell id="6TJCWMIPRrn_ZnzJz7kv-35" value="" style="ellipse;whiteSpace=wrap;html=1;aspect=fixed;fillColor=#000000;" vertex="1" parent="1">
          <mxGeometry x="110" y="110" width="10" height="10" as="geometry" />
        </mxCell>
        <mxCell id="6TJCWMIPRrn_ZnzJz7kv-36" value="" style="ellipse;whiteSpace=wrap;html=1;aspect=fixed;fillColor=#000000;" vertex="1" parent="1">
          <mxGeometry x="110" y="150" width="10" height="10" as="geometry" />
        </mxCell>
        <mxCell id="6TJCWMIPRrn_ZnzJz7kv-37" value="" style="ellipse;whiteSpace=wrap;html=1;aspect=fixed;fillColor=#000000;" vertex="1" parent="1">
          <mxGeometry x="70" y="70" width="10" height="10" as="geometry" />
        </mxCell>
        <mxCell id="6TJCWMIPRrn_ZnzJz7kv-38" value="" style="ellipse;whiteSpace=wrap;html=1;aspect=fixed;fillColor=#000000;" vertex="1" parent="1">
          <mxGeometry x="110" y="70" width="10" height="10" as="geometry" />
        </mxCell>
        <mxCell id="6TJCWMIPRrn_ZnzJz7kv-39" value="3" style="text;html=1;align=center;verticalAlign=middle;resizable=0;points=[];autosize=1;strokeColor=none;fillColor=none;fontStyle=1;fontSize=16;" vertex="1" parent="1">
          <mxGeometry x="120" y="100" width="30" height="30" as="geometry" />
        </mxCell>
        <mxCell id="6TJCWMIPRrn_ZnzJz7kv-40" value="4" style="text;html=1;align=center;verticalAlign=middle;resizable=0;points=[];autosize=1;strokeColor=none;fillColor=none;fontStyle=1;fontSize=16;" vertex="1" parent="1">
          <mxGeometry x="40" y="60" width="30" height="30" as="geometry" />
        </mxCell>
        <mxCell id="6TJCWMIPRrn_ZnzJz7kv-41" value="6" style="text;html=1;align=center;verticalAlign=middle;resizable=0;points=[];autosize=1;strokeColor=none;fillColor=none;fontStyle=1;fontSize=16;" vertex="1" parent="1">
          <mxGeometry x="120" y="60" width="30" height="30" as="geometry" />
        </mxCell>
        <mxCell id="6TJCWMIPRrn_ZnzJz7kv-42" style="edgeStyle=none;shape=connector;rounded=0;orthogonalLoop=1;jettySize=auto;html=1;labelBackgroundColor=default;strokeColor=default;fontFamily=Helvetica;fontSize=11;fontColor=default;startArrow=none;startFill=0;endArrow=none;endFill=0;" edge="1" parent="1" source="6TJCWMIPRrn_ZnzJz7kv-43" target="6TJCWMIPRrn_ZnzJz7kv-49">
          <mxGeometry relative="1" as="geometry" />
        </mxCell>
        <mxCell id="6TJCWMIPRrn_ZnzJz7kv-43" value="" style="ellipse;whiteSpace=wrap;html=1;aspect=fixed;fillColor=#000000;" vertex="1" parent="1">
          <mxGeometry x="228" y="110" width="10" height="10" as="geometry" />
        </mxCell>
        <mxCell id="6TJCWMIPRrn_ZnzJz7kv-44" style="edgeStyle=none;shape=connector;rounded=0;orthogonalLoop=1;jettySize=auto;html=1;entryX=0;entryY=0.5;entryDx=0;entryDy=0;labelBackgroundColor=default;strokeColor=default;fontFamily=Helvetica;fontSize=11;fontColor=default;startArrow=none;startFill=0;endArrow=none;endFill=0;" edge="1" parent="1" source="6TJCWMIPRrn_ZnzJz7kv-45" target="6TJCWMIPRrn_ZnzJz7kv-50">
          <mxGeometry relative="1" as="geometry" />
        </mxCell>
        <mxCell id="6TJCWMIPRrn_ZnzJz7kv-45" value="" style="ellipse;whiteSpace=wrap;html=1;aspect=fixed;fillColor=#000000;" vertex="1" parent="1">
          <mxGeometry x="228" y="150" width="10" height="10" as="geometry" />
        </mxCell>
        <mxCell id="6TJCWMIPRrn_ZnzJz7kv-46" value="0" style="text;html=1;align=center;verticalAlign=middle;resizable=0;points=[];autosize=1;strokeColor=none;fillColor=none;fontStyle=1;fontSize=16;" vertex="1" parent="1">
          <mxGeometry x="198" y="140" width="30" height="30" as="geometry" />
        </mxCell>
        <mxCell id="6TJCWMIPRrn_ZnzJz7kv-47" value="1" style="text;html=1;align=center;verticalAlign=middle;resizable=0;points=[];autosize=1;strokeColor=none;fillColor=none;fontStyle=1;fontSize=16;" vertex="1" parent="1">
          <mxGeometry x="278" y="140" width="30" height="30" as="geometry" />
        </mxCell>
        <mxCell id="6TJCWMIPRrn_ZnzJz7kv-48" value="2" style="text;html=1;align=center;verticalAlign=middle;resizable=0;points=[];autosize=1;strokeColor=none;fillColor=none;fontStyle=1;fontSize=16;" vertex="1" parent="1">
          <mxGeometry x="198" y="100" width="30" height="30" as="geometry" />
        </mxCell>
        <mxCell id="6TJCWMIPRrn_ZnzJz7kv-49" value="" style="ellipse;whiteSpace=wrap;html=1;aspect=fixed;fillColor=#000000;" vertex="1" parent="1">
          <mxGeometry x="268" y="110" width="10" height="10" as="geometry" />
        </mxCell>
        <mxCell id="6TJCWMIPRrn_ZnzJz7kv-50" value="" style="ellipse;whiteSpace=wrap;html=1;aspect=fixed;fillColor=#000000;" vertex="1" parent="1">
          <mxGeometry x="268" y="150" width="10" height="10" as="geometry" />
        </mxCell>
        <mxCell id="6TJCWMIPRrn_ZnzJz7kv-51" style="edgeStyle=none;shape=connector;rounded=0;orthogonalLoop=1;jettySize=auto;html=1;entryX=0;entryY=0.5;entryDx=0;entryDy=0;labelBackgroundColor=default;strokeColor=default;fontFamily=Helvetica;fontSize=11;fontColor=default;startArrow=none;startFill=0;endArrow=none;endFill=0;" edge="1" parent="1" source="6TJCWMIPRrn_ZnzJz7kv-52" target="6TJCWMIPRrn_ZnzJz7kv-53">
          <mxGeometry relative="1" as="geometry" />
        </mxCell>
        <mxCell id="6TJCWMIPRrn_ZnzJz7kv-52" value="" style="ellipse;whiteSpace=wrap;html=1;aspect=fixed;fillColor=#000000;" vertex="1" parent="1">
          <mxGeometry x="228" y="70" width="10" height="10" as="geometry" />
        </mxCell>
        <mxCell id="6TJCWMIPRrn_ZnzJz7kv-53" value="" style="ellipse;whiteSpace=wrap;html=1;aspect=fixed;fillColor=#000000;" vertex="1" parent="1">
          <mxGeometry x="268" y="70" width="10" height="10" as="geometry" />
        </mxCell>
        <mxCell id="6TJCWMIPRrn_ZnzJz7kv-54" value="3" style="text;html=1;align=center;verticalAlign=middle;resizable=0;points=[];autosize=1;strokeColor=none;fillColor=none;fontStyle=1;fontSize=16;" vertex="1" parent="1">
          <mxGeometry x="278" y="100" width="30" height="30" as="geometry" />
        </mxCell>
        <mxCell id="6TJCWMIPRrn_ZnzJz7kv-55" value="4" style="text;html=1;align=center;verticalAlign=middle;resizable=0;points=[];autosize=1;strokeColor=none;fillColor=none;fontStyle=1;fontSize=16;" vertex="1" parent="1">
          <mxGeometry x="198" y="60" width="30" height="30" as="geometry" />
        </mxCell>
        <mxCell id="6TJCWMIPRrn_ZnzJz7kv-56" value="5" style="text;html=1;align=center;verticalAlign=middle;resizable=0;points=[];autosize=1;strokeColor=none;fillColor=none;fontStyle=1;fontSize=16;" vertex="1" parent="1">
          <mxGeometry x="278" y="60" width="30" height="30" as="geometry" />
        </mxCell>
        <mxCell id="6TJCWMIPRrn_ZnzJz7kv-57" style="edgeStyle=none;shape=connector;rounded=0;orthogonalLoop=1;jettySize=auto;html=1;labelBackgroundColor=default;strokeColor=default;fontFamily=Helvetica;fontSize=11;fontColor=default;startArrow=none;startFill=0;endArrow=none;endFill=0;" edge="1" parent="1" source="6TJCWMIPRrn_ZnzJz7kv-58" target="6TJCWMIPRrn_ZnzJz7kv-65">
          <mxGeometry relative="1" as="geometry" />
        </mxCell>
        <mxCell id="6TJCWMIPRrn_ZnzJz7kv-58" value="" style="ellipse;whiteSpace=wrap;html=1;aspect=fixed;fillColor=#000000;" vertex="1" parent="1">
          <mxGeometry x="388" y="110" width="10" height="10" as="geometry" />
        </mxCell>
        <mxCell id="6TJCWMIPRrn_ZnzJz7kv-59" style="edgeStyle=none;shape=connector;rounded=0;orthogonalLoop=1;jettySize=auto;html=1;labelBackgroundColor=default;strokeColor=default;fontFamily=Helvetica;fontSize=11;fontColor=default;startArrow=none;startFill=0;endArrow=none;endFill=0;" edge="1" parent="1" source="6TJCWMIPRrn_ZnzJz7kv-60" target="6TJCWMIPRrn_ZnzJz7kv-67">
          <mxGeometry relative="1" as="geometry" />
        </mxCell>
        <mxCell id="6TJCWMIPRrn_ZnzJz7kv-60" value="" style="ellipse;whiteSpace=wrap;html=1;aspect=fixed;fillColor=#000000;" vertex="1" parent="1">
          <mxGeometry x="388" y="150" width="10" height="10" as="geometry" />
        </mxCell>
        <mxCell id="6TJCWMIPRrn_ZnzJz7kv-61" value="0" style="text;html=1;align=center;verticalAlign=middle;resizable=0;points=[];autosize=1;strokeColor=none;fillColor=none;fontStyle=1;fontSize=16;" vertex="1" parent="1">
          <mxGeometry x="358" y="140" width="30" height="30" as="geometry" />
        </mxCell>
        <mxCell id="6TJCWMIPRrn_ZnzJz7kv-62" value="1" style="text;html=1;align=center;verticalAlign=middle;resizable=0;points=[];autosize=1;strokeColor=none;fillColor=none;fontStyle=1;fontSize=16;" vertex="1" parent="1">
          <mxGeometry x="438" y="140" width="30" height="30" as="geometry" />
        </mxCell>
        <mxCell id="6TJCWMIPRrn_ZnzJz7kv-63" value="2" style="text;html=1;align=center;verticalAlign=middle;resizable=0;points=[];autosize=1;strokeColor=none;fillColor=none;fontStyle=1;fontSize=16;" vertex="1" parent="1">
          <mxGeometry x="358" y="100" width="30" height="30" as="geometry" />
        </mxCell>
        <mxCell id="6TJCWMIPRrn_ZnzJz7kv-64" style="edgeStyle=none;shape=connector;rounded=0;orthogonalLoop=1;jettySize=auto;html=1;entryX=0.646;entryY=0.851;entryDx=0;entryDy=0;entryPerimeter=0;labelBackgroundColor=default;strokeColor=default;fontFamily=Helvetica;fontSize=11;fontColor=default;startArrow=none;startFill=0;endArrow=none;endFill=0;" edge="1" parent="1" source="6TJCWMIPRrn_ZnzJz7kv-65" target="6TJCWMIPRrn_ZnzJz7kv-69">
          <mxGeometry relative="1" as="geometry" />
        </mxCell>
        <mxCell id="6TJCWMIPRrn_ZnzJz7kv-65" value="" style="ellipse;whiteSpace=wrap;html=1;aspect=fixed;fillColor=#000000;" vertex="1" parent="1">
          <mxGeometry x="428" y="110" width="10" height="10" as="geometry" />
        </mxCell>
        <mxCell id="6TJCWMIPRrn_ZnzJz7kv-66" style="edgeStyle=none;shape=connector;rounded=0;orthogonalLoop=1;jettySize=auto;html=1;entryX=0.646;entryY=0.759;entryDx=0;entryDy=0;labelBackgroundColor=default;strokeColor=default;fontFamily=Helvetica;fontSize=11;fontColor=default;startArrow=none;startFill=0;endArrow=none;endFill=0;entryPerimeter=0;" edge="1" parent="1" source="6TJCWMIPRrn_ZnzJz7kv-67" target="6TJCWMIPRrn_ZnzJz7kv-58">
          <mxGeometry relative="1" as="geometry" />
        </mxCell>
        <mxCell id="6TJCWMIPRrn_ZnzJz7kv-67" value="" style="ellipse;whiteSpace=wrap;html=1;aspect=fixed;fillColor=#000000;" vertex="1" parent="1">
          <mxGeometry x="428" y="150" width="10" height="10" as="geometry" />
        </mxCell>
        <mxCell id="6TJCWMIPRrn_ZnzJz7kv-68" style="edgeStyle=none;shape=connector;rounded=0;orthogonalLoop=1;jettySize=auto;html=1;entryX=0;entryY=0.5;entryDx=0;entryDy=0;labelBackgroundColor=default;strokeColor=default;fontFamily=Helvetica;fontSize=11;fontColor=default;startArrow=none;startFill=0;endArrow=none;endFill=0;" edge="1" parent="1" source="6TJCWMIPRrn_ZnzJz7kv-69" target="6TJCWMIPRrn_ZnzJz7kv-70">
          <mxGeometry relative="1" as="geometry" />
        </mxCell>
        <mxCell id="6TJCWMIPRrn_ZnzJz7kv-69" value="" style="ellipse;whiteSpace=wrap;html=1;aspect=fixed;fillColor=#000000;" vertex="1" parent="1">
          <mxGeometry x="388" y="70" width="10" height="10" as="geometry" />
        </mxCell>
        <mxCell id="6TJCWMIPRrn_ZnzJz7kv-70" value="" style="ellipse;whiteSpace=wrap;html=1;aspect=fixed;fillColor=#000000;" vertex="1" parent="1">
          <mxGeometry x="428" y="70" width="10" height="10" as="geometry" />
        </mxCell>
        <mxCell id="6TJCWMIPRrn_ZnzJz7kv-71" value="3" style="text;html=1;align=center;verticalAlign=middle;resizable=0;points=[];autosize=1;strokeColor=none;fillColor=none;fontStyle=1;fontSize=16;" vertex="1" parent="1">
          <mxGeometry x="438" y="100" width="30" height="30" as="geometry" />
        </mxCell>
        <mxCell id="6TJCWMIPRrn_ZnzJz7kv-72" value="4" style="text;html=1;align=center;verticalAlign=middle;resizable=0;points=[];autosize=1;strokeColor=none;fillColor=none;fontStyle=1;fontSize=16;" vertex="1" parent="1">
          <mxGeometry x="358" y="60" width="30" height="30" as="geometry" />
        </mxCell>
        <mxCell id="6TJCWMIPRrn_ZnzJz7kv-73" value="5" style="text;html=1;align=center;verticalAlign=middle;resizable=0;points=[];autosize=1;strokeColor=none;fillColor=none;fontStyle=1;fontSize=16;" vertex="1" parent="1">
          <mxGeometry x="438" y="60" width="30" height="30" as="geometry" />
        </mxCell>
        <mxCell id="6TJCWMIPRrn_ZnzJz7kv-74" style="edgeStyle=none;shape=connector;rounded=0;orthogonalLoop=1;jettySize=auto;html=1;entryX=0.538;entryY=0.161;entryDx=0;entryDy=0;entryPerimeter=0;labelBackgroundColor=default;strokeColor=default;fontFamily=Helvetica;fontSize=11;fontColor=default;startArrow=none;startFill=0;endArrow=none;endFill=0;" edge="1" parent="1" source="6TJCWMIPRrn_ZnzJz7kv-75" target="6TJCWMIPRrn_ZnzJz7kv-77">
          <mxGeometry relative="1" as="geometry" />
        </mxCell>
        <mxCell id="6TJCWMIPRrn_ZnzJz7kv-75" value="" style="ellipse;whiteSpace=wrap;html=1;aspect=fixed;fillColor=#000000;" vertex="1" parent="1">
          <mxGeometry x="70" y="310" width="10" height="10" as="geometry" />
        </mxCell>
        <mxCell id="6TJCWMIPRrn_ZnzJz7kv-76" style="edgeStyle=none;shape=connector;rounded=0;orthogonalLoop=1;jettySize=auto;html=1;entryX=0;entryY=0.5;entryDx=0;entryDy=0;labelBackgroundColor=default;strokeColor=default;fontFamily=Helvetica;fontSize=11;fontColor=default;startArrow=none;startFill=0;endArrow=none;endFill=0;" edge="1" parent="1" source="6TJCWMIPRrn_ZnzJz7kv-77" target="6TJCWMIPRrn_ZnzJz7kv-84">
          <mxGeometry relative="1" as="geometry" />
        </mxCell>
        <mxCell id="6TJCWMIPRrn_ZnzJz7kv-77" value="" style="ellipse;whiteSpace=wrap;html=1;aspect=fixed;fillColor=#000000;" vertex="1" parent="1">
          <mxGeometry x="70" y="350" width="10" height="10" as="geometry" />
        </mxCell>
        <mxCell id="6TJCWMIPRrn_ZnzJz7kv-78" value="0" style="text;html=1;align=center;verticalAlign=middle;resizable=0;points=[];autosize=1;strokeColor=none;fillColor=none;fontStyle=1;fontSize=16;" vertex="1" parent="1">
          <mxGeometry x="40" y="340" width="30" height="30" as="geometry" />
        </mxCell>
        <mxCell id="6TJCWMIPRrn_ZnzJz7kv-79" value="1" style="text;html=1;align=center;verticalAlign=middle;resizable=0;points=[];autosize=1;strokeColor=none;fillColor=none;fontStyle=1;fontSize=16;" vertex="1" parent="1">
          <mxGeometry x="120" y="340" width="30" height="30" as="geometry" />
        </mxCell>
        <mxCell id="6TJCWMIPRrn_ZnzJz7kv-80" value="2" style="text;html=1;align=center;verticalAlign=middle;resizable=0;points=[];autosize=1;strokeColor=none;fillColor=none;fontStyle=1;fontSize=16;" vertex="1" parent="1">
          <mxGeometry x="40" y="300" width="30" height="30" as="geometry" />
        </mxCell>
        <mxCell id="6TJCWMIPRrn_ZnzJz7kv-81" style="edgeStyle=none;shape=connector;rounded=0;orthogonalLoop=1;jettySize=auto;html=1;entryX=0.515;entryY=0.782;entryDx=0;entryDy=0;entryPerimeter=0;labelBackgroundColor=default;strokeColor=default;fontFamily=Helvetica;fontSize=11;fontColor=default;startArrow=none;startFill=0;endArrow=none;endFill=0;" edge="1" parent="1" source="6TJCWMIPRrn_ZnzJz7kv-82" target="6TJCWMIPRrn_ZnzJz7kv-86">
          <mxGeometry relative="1" as="geometry" />
        </mxCell>
        <mxCell id="6TJCWMIPRrn_ZnzJz7kv-82" value="" style="ellipse;whiteSpace=wrap;html=1;aspect=fixed;fillColor=#000000;" vertex="1" parent="1">
          <mxGeometry x="110" y="310" width="10" height="10" as="geometry" />
        </mxCell>
        <mxCell id="6TJCWMIPRrn_ZnzJz7kv-83" style="edgeStyle=none;shape=connector;rounded=0;orthogonalLoop=1;jettySize=auto;html=1;entryX=1;entryY=1;entryDx=0;entryDy=0;labelBackgroundColor=default;strokeColor=default;fontFamily=Helvetica;fontSize=11;fontColor=default;startArrow=none;startFill=0;endArrow=none;endFill=0;" edge="1" parent="1" source="6TJCWMIPRrn_ZnzJz7kv-84" target="6TJCWMIPRrn_ZnzJz7kv-75">
          <mxGeometry relative="1" as="geometry" />
        </mxCell>
        <mxCell id="6TJCWMIPRrn_ZnzJz7kv-84" value="" style="ellipse;whiteSpace=wrap;html=1;aspect=fixed;fillColor=#000000;" vertex="1" parent="1">
          <mxGeometry x="110" y="350" width="10" height="10" as="geometry" />
        </mxCell>
        <mxCell id="6TJCWMIPRrn_ZnzJz7kv-85" style="edgeStyle=none;shape=connector;rounded=0;orthogonalLoop=1;jettySize=auto;html=1;entryX=0;entryY=0.5;entryDx=0;entryDy=0;labelBackgroundColor=default;strokeColor=default;fontFamily=Helvetica;fontSize=11;fontColor=default;startArrow=none;startFill=0;endArrow=none;endFill=0;" edge="1" parent="1" source="6TJCWMIPRrn_ZnzJz7kv-86" target="6TJCWMIPRrn_ZnzJz7kv-88">
          <mxGeometry relative="1" as="geometry" />
        </mxCell>
        <mxCell id="6TJCWMIPRrn_ZnzJz7kv-86" value="" style="ellipse;whiteSpace=wrap;html=1;aspect=fixed;fillColor=#000000;" vertex="1" parent="1">
          <mxGeometry x="70" y="270" width="10" height="10" as="geometry" />
        </mxCell>
        <mxCell id="6TJCWMIPRrn_ZnzJz7kv-87" style="edgeStyle=none;shape=connector;rounded=0;orthogonalLoop=1;jettySize=auto;html=1;entryX=0.5;entryY=0;entryDx=0;entryDy=0;labelBackgroundColor=default;strokeColor=default;fontFamily=Helvetica;fontSize=11;fontColor=default;startArrow=none;startFill=0;endArrow=none;endFill=0;" edge="1" parent="1" source="6TJCWMIPRrn_ZnzJz7kv-88" target="6TJCWMIPRrn_ZnzJz7kv-82">
          <mxGeometry relative="1" as="geometry" />
        </mxCell>
        <mxCell id="6TJCWMIPRrn_ZnzJz7kv-88" value="" style="ellipse;whiteSpace=wrap;html=1;aspect=fixed;fillColor=#000000;" vertex="1" parent="1">
          <mxGeometry x="110" y="270" width="10" height="10" as="geometry" />
        </mxCell>
        <mxCell id="6TJCWMIPRrn_ZnzJz7kv-89" value="3" style="text;html=1;align=center;verticalAlign=middle;resizable=0;points=[];autosize=1;strokeColor=none;fillColor=none;fontStyle=1;fontSize=16;" vertex="1" parent="1">
          <mxGeometry x="120" y="300" width="30" height="30" as="geometry" />
        </mxCell>
        <mxCell id="6TJCWMIPRrn_ZnzJz7kv-90" value="4" style="text;html=1;align=center;verticalAlign=middle;resizable=0;points=[];autosize=1;strokeColor=none;fillColor=none;fontStyle=1;fontSize=16;" vertex="1" parent="1">
          <mxGeometry x="40" y="260" width="30" height="30" as="geometry" />
        </mxCell>
        <mxCell id="6TJCWMIPRrn_ZnzJz7kv-91" value="5" style="text;html=1;align=center;verticalAlign=middle;resizable=0;points=[];autosize=1;strokeColor=none;fillColor=none;fontStyle=1;fontSize=16;" vertex="1" parent="1">
          <mxGeometry x="120" y="260" width="30" height="30" as="geometry" />
        </mxCell>
        <mxCell id="6TJCWMIPRrn_ZnzJz7kv-92" style="edgeStyle=none;shape=connector;rounded=0;orthogonalLoop=1;jettySize=auto;html=1;entryX=0.5;entryY=0;entryDx=0;entryDy=0;labelBackgroundColor=default;strokeColor=default;fontFamily=Helvetica;fontSize=11;fontColor=default;startArrow=none;startFill=0;endArrow=none;endFill=0;" edge="1" parent="1" source="6TJCWMIPRrn_ZnzJz7kv-94" target="6TJCWMIPRrn_ZnzJz7kv-96">
          <mxGeometry relative="1" as="geometry" />
        </mxCell>
        <mxCell id="6TJCWMIPRrn_ZnzJz7kv-93" style="edgeStyle=none;shape=connector;rounded=0;orthogonalLoop=1;jettySize=auto;html=1;labelBackgroundColor=default;strokeColor=default;fontFamily=Helvetica;fontSize=11;fontColor=default;startArrow=none;startFill=0;endArrow=none;endFill=0;" edge="1" parent="1" source="6TJCWMIPRrn_ZnzJz7kv-94" target="6TJCWMIPRrn_ZnzJz7kv-102">
          <mxGeometry relative="1" as="geometry" />
        </mxCell>
        <mxCell id="6TJCWMIPRrn_ZnzJz7kv-94" value="" style="ellipse;whiteSpace=wrap;html=1;aspect=fixed;fillColor=#000000;" vertex="1" parent="1">
          <mxGeometry x="228" y="310" width="10" height="10" as="geometry" />
        </mxCell>
        <mxCell id="6TJCWMIPRrn_ZnzJz7kv-95" style="edgeStyle=none;shape=connector;rounded=0;orthogonalLoop=1;jettySize=auto;html=1;labelBackgroundColor=default;strokeColor=default;fontFamily=Helvetica;fontSize=11;fontColor=default;startArrow=none;startFill=0;endArrow=none;endFill=0;" edge="1" parent="1" source="6TJCWMIPRrn_ZnzJz7kv-96" target="6TJCWMIPRrn_ZnzJz7kv-104">
          <mxGeometry relative="1" as="geometry" />
        </mxCell>
        <mxCell id="6TJCWMIPRrn_ZnzJz7kv-96" value="" style="ellipse;whiteSpace=wrap;html=1;aspect=fixed;fillColor=#000000;" vertex="1" parent="1">
          <mxGeometry x="228" y="350" width="10" height="10" as="geometry" />
        </mxCell>
        <mxCell id="6TJCWMIPRrn_ZnzJz7kv-97" value="0" style="text;html=1;align=center;verticalAlign=middle;resizable=0;points=[];autosize=1;strokeColor=none;fillColor=none;fontStyle=1;fontSize=16;" vertex="1" parent="1">
          <mxGeometry x="198" y="340" width="30" height="30" as="geometry" />
        </mxCell>
        <mxCell id="6TJCWMIPRrn_ZnzJz7kv-98" value="1" style="text;html=1;align=center;verticalAlign=middle;resizable=0;points=[];autosize=1;strokeColor=none;fillColor=none;fontStyle=1;fontSize=16;" vertex="1" parent="1">
          <mxGeometry x="278" y="340" width="30" height="30" as="geometry" />
        </mxCell>
        <mxCell id="6TJCWMIPRrn_ZnzJz7kv-99" value="2" style="text;html=1;align=center;verticalAlign=middle;resizable=0;points=[];autosize=1;strokeColor=none;fillColor=none;fontStyle=1;fontSize=16;" vertex="1" parent="1">
          <mxGeometry x="198" y="300" width="30" height="30" as="geometry" />
        </mxCell>
        <mxCell id="6TJCWMIPRrn_ZnzJz7kv-100" style="edgeStyle=none;shape=connector;rounded=0;orthogonalLoop=1;jettySize=auto;html=1;entryX=0.5;entryY=0;entryDx=0;entryDy=0;labelBackgroundColor=default;strokeColor=default;fontFamily=Helvetica;fontSize=11;fontColor=default;startArrow=none;startFill=0;endArrow=none;endFill=0;" edge="1" parent="1" source="6TJCWMIPRrn_ZnzJz7kv-102" target="6TJCWMIPRrn_ZnzJz7kv-104">
          <mxGeometry relative="1" as="geometry" />
        </mxCell>
        <mxCell id="6TJCWMIPRrn_ZnzJz7kv-101" style="edgeStyle=none;shape=connector;rounded=0;orthogonalLoop=1;jettySize=auto;html=1;labelBackgroundColor=default;strokeColor=default;fontFamily=Helvetica;fontSize=11;fontColor=default;startArrow=none;startFill=0;endArrow=none;endFill=0;" edge="1" parent="1" source="6TJCWMIPRrn_ZnzJz7kv-102" target="6TJCWMIPRrn_ZnzJz7kv-107">
          <mxGeometry relative="1" as="geometry" />
        </mxCell>
        <mxCell id="6TJCWMIPRrn_ZnzJz7kv-102" value="" style="ellipse;whiteSpace=wrap;html=1;aspect=fixed;fillColor=#000000;" vertex="1" parent="1">
          <mxGeometry x="268" y="310" width="10" height="10" as="geometry" />
        </mxCell>
        <mxCell id="6TJCWMIPRrn_ZnzJz7kv-103" style="edgeStyle=none;shape=connector;rounded=0;orthogonalLoop=1;jettySize=auto;html=1;labelBackgroundColor=default;strokeColor=default;fontFamily=Helvetica;fontSize=11;fontColor=default;startArrow=none;startFill=0;endArrow=none;endFill=0;" edge="1" parent="1" source="6TJCWMIPRrn_ZnzJz7kv-104" target="6TJCWMIPRrn_ZnzJz7kv-94">
          <mxGeometry relative="1" as="geometry" />
        </mxCell>
        <mxCell id="6TJCWMIPRrn_ZnzJz7kv-104" value="" style="ellipse;whiteSpace=wrap;html=1;aspect=fixed;fillColor=#000000;" vertex="1" parent="1">
          <mxGeometry x="268" y="350" width="10" height="10" as="geometry" />
        </mxCell>
        <mxCell id="6TJCWMIPRrn_ZnzJz7kv-105" style="edgeStyle=none;shape=connector;rounded=0;orthogonalLoop=1;jettySize=auto;html=1;labelBackgroundColor=default;strokeColor=default;fontFamily=Helvetica;fontSize=11;fontColor=default;startArrow=none;startFill=0;endArrow=none;endFill=0;" edge="1" parent="1" source="6TJCWMIPRrn_ZnzJz7kv-107" target="6TJCWMIPRrn_ZnzJz7kv-109">
          <mxGeometry relative="1" as="geometry" />
        </mxCell>
        <mxCell id="6TJCWMIPRrn_ZnzJz7kv-106" style="edgeStyle=none;shape=connector;rounded=0;orthogonalLoop=1;jettySize=auto;html=1;entryX=0.5;entryY=0;entryDx=0;entryDy=0;labelBackgroundColor=default;strokeColor=default;fontFamily=Helvetica;fontSize=11;fontColor=default;startArrow=none;startFill=0;endArrow=none;endFill=0;" edge="1" parent="1" source="6TJCWMIPRrn_ZnzJz7kv-107" target="6TJCWMIPRrn_ZnzJz7kv-94">
          <mxGeometry relative="1" as="geometry" />
        </mxCell>
        <mxCell id="6TJCWMIPRrn_ZnzJz7kv-107" value="" style="ellipse;whiteSpace=wrap;html=1;aspect=fixed;fillColor=#000000;" vertex="1" parent="1">
          <mxGeometry x="228" y="270" width="10" height="10" as="geometry" />
        </mxCell>
        <mxCell id="6TJCWMIPRrn_ZnzJz7kv-108" style="edgeStyle=none;shape=connector;rounded=0;orthogonalLoop=1;jettySize=auto;html=1;entryX=0.5;entryY=0;entryDx=0;entryDy=0;labelBackgroundColor=default;strokeColor=default;fontFamily=Helvetica;fontSize=11;fontColor=default;startArrow=none;startFill=0;endArrow=none;endFill=0;" edge="1" parent="1" source="6TJCWMIPRrn_ZnzJz7kv-109" target="6TJCWMIPRrn_ZnzJz7kv-102">
          <mxGeometry relative="1" as="geometry" />
        </mxCell>
        <mxCell id="6TJCWMIPRrn_ZnzJz7kv-109" value="" style="ellipse;whiteSpace=wrap;html=1;aspect=fixed;fillColor=#000000;" vertex="1" parent="1">
          <mxGeometry x="268" y="270" width="10" height="10" as="geometry" />
        </mxCell>
        <mxCell id="6TJCWMIPRrn_ZnzJz7kv-110" value="3" style="text;html=1;align=center;verticalAlign=middle;resizable=0;points=[];autosize=1;strokeColor=none;fillColor=none;fontStyle=1;fontSize=16;" vertex="1" parent="1">
          <mxGeometry x="278" y="300" width="30" height="30" as="geometry" />
        </mxCell>
        <mxCell id="6TJCWMIPRrn_ZnzJz7kv-111" value="4" style="text;html=1;align=center;verticalAlign=middle;resizable=0;points=[];autosize=1;strokeColor=none;fillColor=none;fontStyle=1;fontSize=16;" vertex="1" parent="1">
          <mxGeometry x="198" y="260" width="30" height="30" as="geometry" />
        </mxCell>
        <mxCell id="6TJCWMIPRrn_ZnzJz7kv-112" value="5" style="text;html=1;align=center;verticalAlign=middle;resizable=0;points=[];autosize=1;strokeColor=none;fillColor=none;fontStyle=1;fontSize=16;" vertex="1" parent="1">
          <mxGeometry x="278" y="260" width="30" height="30" as="geometry" />
        </mxCell>
        <mxCell id="6TJCWMIPRrn_ZnzJz7kv-113" value="" style="sketch=0;outlineConnect=0;dashed=0;verticalLabelPosition=bottom;verticalAlign=top;align=center;html=1;fontSize=12;fontStyle=0;aspect=fixed;pointerEvents=1;shape=mxgraph.aws4.container_registry_image;fillColor=#999999;strokeColor=none;gradientDirection=north;fontColor=#ffffff;opacity=50;" vertex="1" parent="1">
          <mxGeometry x="800" y="280" width="140" height="140" as="geometry" />
        </mxCell>
      </root>
    </mxGraphModel>
  </diagram>
</mxfile>
